# xmcd
#
# Track frame offsets:
#	150
#	20583
#	38534
#	53932
#	71593
#
# Disc length: 1187 seconds
# Revision: 0
# Processed by: cddbd v1.5.2PL0 Copyright (c) Steve Scherf et al.
# Submitted via: dBpowerAMP V12.0
#
DISCID=3b04a105
DTITLE=Rocky Neck Bluegrass Band - Rocky Neck Bluegrass Band
DYEAR=2010
DGENRE=Bluegrass
TTITLE0=Comes A Time
TTITLE1=Girl I Left Behind Me
TTITLE2=For Anna
TTITLE3=Long Monday
TTITLE4=Shady Grove
EXTD=
EXTT0=
EXTT1=
EXTT2=
EXTT3=
EXTT4=
PLAYORDER=
